HIERARCHY
ROOT Hips
{
	OFFSET 0.000000 0.000000 0.000000
	CHANNELS 6 Xposition Yposition Zposition Xrotation Yrotation Zrotation
	JOINT LeftUpLeg_virtual
	{
		OFFSET 0.000000 0.000000 0.000000
		CHANNELS 3 Xrotation Yrotation Zrotation
		JOINT LeftUpLeg
		{
			OFFSET 13.026900 -6.336304 -1.092800
			CHANNELS 3 Xrotation Yrotation Zrotation
			JOINT LeftLeg
			{
				OFFSET 0.524474 -46.096886 9.782700
				CHANNELS 3 Xrotation Yrotation Zrotation
				JOINT LeftFoot
				{
					OFFSET -0.524474 -53.427422 -12.948200
					CHANNELS 3 Xrotation Yrotation Zrotation
					JOINT LeftToeBase
					{
						OFFSET 0.192200 -14.009700 16.364100
						CHANNELS 3 Xrotation Yrotation Zrotation
						JOINT LeftToe_End
						{
							OFFSET -1.784700 -0.561700 9.474800
							CHANNELS 3 Xrotation Yrotation Zrotation
							End Site
							{
								OFFSET 0 0 0
							}
						}
					}
				}
			}
		}
	}
	JOINT RightUpLeg_virtual
	{
		OFFSET 0.000000 0.000000 0.000000
		CHANNELS 3 Xrotation Yrotation Zrotation
		JOINT RightUpLeg
		{
			OFFSET -12.883000 -6.336304 -1.092800
			CHANNELS 3 Xrotation Yrotation Zrotation
			JOINT RightLeg
			{
				OFFSET -0.524587 -46.096825 9.782800
				CHANNELS 3 Xrotation Yrotation Zrotation
				JOINT RightFoot
				{
					OFFSET 0.524587 -53.427383 -12.948300
					CHANNELS 3 Xrotation Yrotation Zrotation
					JOINT RightToeBase
					{
						OFFSET -0.192200 -14.009700 16.364100
						CHANNELS 3 Xrotation Yrotation Zrotation
						JOINT RightToe_End
						{
							OFFSET 1.784700 -0.561700 9.474800
							CHANNELS 3 Xrotation Yrotation Zrotation
							End Site
							{
								OFFSET 0 0 0
							}
						}
					}
				}
			}
		}
	}
	JOINT Spine_virtual
	{
		OFFSET 0.000000 0.000000 0.000000
		CHANNELS 3 Xrotation Yrotation Zrotation
		JOINT Spine
		{
			OFFSET 0.072000 7.257294 -0.789700
			CHANNELS 3 Xrotation Yrotation Zrotation
			JOINT Spine1
			{
				OFFSET 0.000000 12.508769 -0.658067
				CHANNELS 3 Xrotation Yrotation Zrotation
				JOINT Spine1_split
				{
					OFFSET 0.000000 12.508769 -0.658067
					CHANNELS 3 Xrotation Yrotation Zrotation
					JOINT Spine2
					{
						OFFSET 0.000000 12.508769 -0.658067
						CHANNELS 3 Xrotation Yrotation Zrotation
						JOINT Neck_virtual
						{
							OFFSET 0.000000 0.000000 0.000000
							CHANNELS 3 Xrotation Yrotation Zrotation
							JOINT Neck
							{
								OFFSET 0.000000 14.033295 7.520400
								CHANNELS 3 Xrotation Yrotation Zrotation
								JOINT Head
								{
									OFFSET 0.000000 8.198502 5.703100
									CHANNELS 3 Xrotation Yrotation Zrotation
									JOINT HeadTop_End
									{
										OFFSET 0.000000 17.760803 13.332701
										CHANNELS 3 Xrotation Yrotation Zrotation
										End Site
										{
											OFFSET 0 0 0
										}
									}
								}
							}
						}
						JOINT LeftShoulder_virtual
						{
							OFFSET 0.000000 0.000000 0.000000
							CHANNELS 3 Xrotation Yrotation Zrotation
							JOINT LeftShoulder
							{
								OFFSET 6.292450 5.785301 -0.669000
								CHANNELS 3 Xrotation Yrotation Zrotation
								JOINT LeftShoulder_split
								{
									OFFSET 6.292450 5.785301 -0.669000
									CHANNELS 3 Xrotation Yrotation Zrotation
									JOINT LeftArm
									{
										OFFSET 13.907140 -6.093903 1.965100
										CHANNELS 3 Xrotation Yrotation Zrotation
										JOINT LeftForeArm
										{
											OFFSET 34.140198 0.000000 0.000000
											CHANNELS 3 Xrotation Yrotation Zrotation
											JOINT LeftHand
											{
												OFFSET 40.960209 0.000000 0.000000
												CHANNELS 3 Xrotation Yrotation Zrotation
												End Site
												{
													OFFSET 0 0 0
												}
											}
										}
									}
								}
							}
						}
						JOINT RightShoulder_virtual
						{
							OFFSET 0.000000 0.000000 0.000000
							CHANNELS 3 Xrotation Yrotation Zrotation
							JOINT RightShoulder
							{
								OFFSET -6.292450 5.785301 -0.669000
								CHANNELS 3 Xrotation Yrotation Zrotation
								JOINT RightShoulder_split
								{
									OFFSET -6.292450 5.785301 -0.669000
									CHANNELS 3 Xrotation Yrotation Zrotation
									JOINT RightArm
									{
										OFFSET -13.907140 -6.093903 1.965100
										CHANNELS 3 Xrotation Yrotation Zrotation
										JOINT RightForeArm
										{
											OFFSET -34.140198 0.000000 0.000000
											CHANNELS 3 Xrotation Yrotation Zrotation
											JOINT RightHand
											{
												OFFSET -40.960209 0.000000 0.000000
												CHANNELS 3 Xrotation Yrotation Zrotation
												End Site
												{
													OFFSET 0 0 0
												}
											}
										}
									}
								}
							}
						}
					}
				}
			}
		}
	}
}
MOTION
Frames: 10
Frame Time: 0.03333333
-1.070853 114.637802 1.254589 0.000000 0.000000 0.000000 0.140113 -6.143452 0.431912 -12.107764 -4.437354 10.538416 23.213335 2.981747 -0.017197 -3.036000 9.891004 -11.073883 -2.046907 0.329892 -0.852747 0.000000 0.000000 0.000000 1.208628 -6.396683 0.228549 -5.824094 -4.194285 -11.730338 18.469035 1.656104 0.983874 -9.201473 -11.883078 10.772796 2.839525 -0.488717 -0.370258 0.000000 0.000000 0.000000 1.034057 -3.823904 -1.011115 2.991097 -0.698464 1.027112 2.438019 -0.067522 0.239787 1.090717 -0.373311 -0.161880 0.000000 0.000000 0.000000 2.330019 -0.055152 0.059742 -0.997416 0.428523 1.091922 1.057673 0.696834 2.316013 0.000000 0.000000 0.000000 1.850831 0.109458 0.058492 0.495392 9.798376 -11.590365 -1.276844 -1.293300 -1.200409 13.779969 -8.524617 -50.620994 1.332241 -35.214000 1.589784 0.000000 0.000000 0.000000 2.060831 -0.047148 0.088746 1.553707 -7.645016 12.867954 0.809457 2.049057 -2.201121 5.655589 20.339672 60.946584 2.652171 24.275431 1.043352 0.000000 0.000000 0.000000 
-1.173502 114.876785 1.057098 0.000000 0.000000 0.000000 0.243885 -5.615732 0.838042 -12.309717 -3.468877 9.932607 23.168145 1.941690 -0.023522 -1.622664 8.357297 -12.184296 -3.018245 0.229628 -0.447502 0.000000 0.000000 0.000000 1.116501 -6.273373 0.553568 -6.089431 -4.752244 -12.136293 18.152952 1.540183 1.041619 -9.354005 -11.394347 9.745280 3.563432 -0.506518 -0.123038 0.000000 0.000000 0.000000 1.242201 -3.586214 -0.370416 2.974658 -0.819009 0.879924 2.259096 -0.123907 0.201965 0.865714 -0.520192 -0.146568 0.000000 0.000000 0.000000 2.250664 -0.114013 0.045150 -0.695386 0.543716 0.779693 1.436602 0.873964 2.368652 0.000000 0.000000 0.000000 1.796813 0.028003 0.019047 0.536173 9.604971 -11.516208 -1.274525 -1.142271 -1.124161 13.438838 -9.258608 -50.915037 1.371688 -35.681946 1.647273 0.000000 0.000000 0.000000 2.029289 -0.124721 0.092108 1.623074 -7.670128 12.828066 0.677328 2.050721 -2.497162 5.487772 20.582299 60.775249 2.592329 25.347086 1.061987 0.000000 0.000000 0.000000 
-1.419118 115.260834 0.662933 0.000000 0.000000 0.000000 0.396318 -5.233032 1.752264 -11.392154 -1.765676 8.388029 21.776057 1.323754 -0.160257 -1.344318 6.385164 -11.821830 -5.858780 0.034818 0.313783 0.000000 0.000000 0.000000 1.188092 -6.014390 1.379016 -7.229786 -5.278821 -12.822422 18.880697 1.585305 1.094376 -9.114501 -10.522612 8.170840 2.418171 -0.467229 0.054347 0.000000 0.000000 0.000000 1.429262 -3.496609 0.686447 3.032631 -1.214343 0.403053 1.965612 -0.245515 0.100024 0.828561 -0.475830 -0.127465 0.000000 0.000000 0.000000 1.950206 -0.215941 -0.014498 -0.352188 0.606131 0.467673 2.358684 1.089775 2.459681 0.000000 0.000000 0.000000 1.572671 -0.106639 -0.041466 0.545710 9.117162 -11.411140 -1.102749 -0.829084 -1.009627 13.481168 -10.423407 -51.238054 1.130376 -36.208008 1.456535 0.000000 0.000000 0.000000 1.818911 -0.254650 0.078038 1.668173 -7.526146 12.765510 0.642295 2.004594 -2.733553 5.525821 20.954112 60.545153 2.427519 26.663925 1.070292 0.000000 0.000000 0.000000 
-1.676745 115.441795 0.320900 0.000000 0.000000 0.000000 0.517307 -5.186283 2.883040 -9.909654 0.730096 6.454465 19.731836 1.688390 -0.508155 -2.899637 4.799908 -9.648609 -6.285218 -0.045852 0.376585 0.000000 0.000000 0.000000 1.269842 -5.802769 2.441220 -9.210735 -5.711852 -13.489048 20.875078 1.746626 1.147241 -8.334434 -9.457738 6.214201 -0.836183 -0.452511 0.196634 0.000000 0.000000 0.000000 1.576456 -3.972941 1.849380 3.218364 -1.806270 -0.318351 1.587607 -0.409201 -0.025086 0.850679 -0.336632 -0.083738 0.000000 0.000000 0.000000 1.525757 -0.329988 -0.098992 -0.038675 0.607339 0.238515 3.727008 1.385646 2.546868 0.000000 0.000000 0.000000 1.228216 -0.260000 -0.103580 0.517869 8.384259 -11.274621 -0.908467 -0.402234 -0.831049 13.856057 -11.814727 -51.579840 0.698787 -36.641909 1.086383 0.000000 0.000000 0.000000 1.480269 -0.399212 0.057348 1.673314 -7.202575 12.780304 0.625484 1.905849 -2.809878 5.732772 21.412537 60.252008 2.222635 27.850586 1.034911 0.000000 0.000000 0.000000 
-1.956889 115.206543 0.080341 0.000000 0.000000 0.000000 0.691563 -5.605847 3.894427 -8.864624 3.529207 4.770695 18.048741 2.577377 -1.001667 -5.150052 3.578845 -7.043019 -2.785177 0.051567 -0.511049 0.000000 0.000000 0.000000 1.386488 -6.134000 3.445007 -11.785806 -6.017031 -13.777573 23.703699 2.055212 1.191536 -7.113283 -8.175525 4.185828 -5.428458 -0.494894 0.214232 0.000000 0.000000 0.000000 1.533205 -5.109886 2.808600 3.535396 -2.449052 -1.087986 1.186067 -0.572606 -0.119455 1.018682 -0.145645 -0.093452 0.000000 0.000000 0.000000 1.089897 -0.430432 -0.177348 0.177112 0.565425 0.126756 5.417248 1.778064 2.569492 0.000000 0.000000 0.000000 0.847760 -0.390656 -0.141154 0.453886 7.525885 -11.090124 -0.870228 -0.056743 -0.674722 14.491585 -13.300835 -51.896163 0.236273 -36.966121 0.684515 0.000000 0.000000 0.000000 1.084952 -0.528003 0.041016 1.630675 -6.706241 12.961180 0.533828 1.733587 -2.827306 6.003653 21.828827 59.884954 2.040918 28.726539 0.948602 0.000000 0.000000 0.000000 
-2.126594 114.512550 0.116283 0.000000 0.000000 0.000000 0.799671 -6.624796 4.438654 -8.189016 5.791454 3.740283 16.917643 3.141975 -1.437612 -7.110648 2.291014 -5.082416 0.756604 0.129343 -1.088911 0.000000 0.000000 0.000000 1.443587 -7.016270 4.093946 -14.531385 -6.250508 -13.446231 26.805547 2.603397 1.291499 -5.652046 -6.534404 2.313958 -9.859368 -0.570067 0.082914 0.000000 0.000000 0.000000 1.346448 -6.681160 3.354656 3.962442 -2.971732 -1.718780 0.836333 -0.690764 -0.151343 1.244252 -0.021619 -0.054495 0.000000 0.000000 0.000000 0.737891 -0.494621 -0.225839 0.284418 0.499129 0.112353 7.342803 2.272477 2.450638 0.000000 0.000000 0.000000 0.510781 -0.476587 -0.135660 0.379752 6.688704 -10.844402 -0.980794 0.124807 -0.485324 15.287485 -14.775123 -52.121590 -0.078418 -37.205051 0.397380 0.000000 0.000000 0.000000 0.712558 -0.626708 0.039041 1.549791 -6.068933 13.367373 0.400050 1.541917 -2.805690 6.263045 22.031475 59.489944 1.921242 29.373509 0.814795 0.000000 0.000000 0.000000 
-2.098494 113.591103 0.048210 0.000000 0.000000 0.000000 0.740453 -7.946203 4.444735 -7.879237 7.337192 3.442526 16.649074 3.133703 -1.727048 -8.680305 0.893764 -4.199822 1.378273 0.175340 -0.777911 0.000000 0.000000 0.000000 1.510932 -8.233191 4.210549 -16.847085 -6.583673 -12.357445 29.349432 3.433923 1.460346 -4.139012 -4.491244 0.682936 -13.018733 -0.604371 -0.165941 0.000000 0.000000 0.000000 1.123644 -8.491272 3.441917 4.458201 -3.271774 -2.094325 0.568631 -0.739584 -0.123881 1.261571 0.148175 0.057040 0.000000 0.000000 0.000000 0.519299 -0.515979 -0.230534 0.340339 0.453875 0.164378 9.435930 2.835227 2.152517 0.000000 0.000000 0.000000 0.279907 -0.507044 -0.095467 0.330552 6.007720 -10.561924 -1.134536 0.150287 -0.318243 16.160006 -16.160788 -52.188891 -0.142933 -37.363911 0.297901 0.000000 0.000000 0.000000 0.426011 -0.690619 0.038715 1.446616 -5.358797 13.917094 0.354027 1.478157 -2.756821 6.542273 21.849662 59.133059 1.875441 30.123491 0.645233 0.000000 0.000000 0.000000 
-1.879322 112.722717 -0.151009 0.000000 0.000000 0.000000 0.460437 -9.276941 4.047584 -7.761128 8.355119 3.493989 17.414558 3.535891 -1.888489 -10.567054 -0.039246 -3.469712 -0.052714 0.172342 -0.323605 0.000000 0.000000 0.000000 1.565630 -9.678761 3.859308 -18.089773 -6.884203 -10.531370 30.644231 4.550316 1.642393 -2.787383 -2.165718 -0.624654 -14.361999 -0.541464 -0.476772 0.000000 0.000000 0.000000 0.832431 -10.330325 3.165349 4.944949 -3.337617 -2.200062 0.415245 -0.720792 -0.069368 1.191281 0.298443 0.185867 0.000000 0.000000 0.000000 0.433606 -0.508907 -0.193575 0.428121 0.474018 0.227141 11.613205 3.482341 1.679300 0.000000 0.000000 0.000000 0.182122 -0.500174 -0.038171 0.317529 5.571453 -10.271059 -1.279123 -0.080296 -0.139278 17.071180 -17.389153 -52.031469 0.028976 -37.397205 0.387750 0.000000 0.000000 0.000000 0.253689 -0.723369 0.031764 1.346825 -4.636556 14.533336 0.354452 1.624564 -2.741910 6.893301 21.123308 58.892637 1.879285 31.339961 0.484774 0.000000 0.000000 0.000000 
-1.483927 111.999031 -0.351742 0.000000 0.000000 0.000000 -0.005899 -10.406540 3.360127 -7.988574 8.545298 3.719792 19.510739 4.539333 -1.846491 -12.410420 -0.127230 -2.786005 -1.280831 0.191960 -0.314722 0.000000 0.000000 0.000000 1.523271 -11.246570 3.203709 -18.077375 -7.030469 -8.283148 30.381460 5.891296 1.778859 -1.782028 0.139855 -1.648241 -14.023493 -0.404136 -0.693352 0.000000 0.000000 0.000000 0.541066 -11.957488 2.705772 5.335360 -3.200782 -2.122091 0.353303 -0.663970 -0.031995 1.106990 0.360802 0.226502 0.000000 0.000000 0.000000 0.437710 -0.488789 -0.138790 0.641078 0.573452 0.293515 13.840040 4.193408 1.070523 0.000000 0.000000 0.000000 0.193815 -0.476917 0.011539 0.347236 5.393106 -10.007212 -1.361546 -0.557649 -0.035266 17.879588 -18.457939 -51.661447 0.304504 -37.276010 0.559349 0.000000 0.000000 0.000000 0.195160 -0.739763 0.011653 1.273238 -3.960730 15.122283 0.275454 1.929791 -2.752416 7.373166 19.824814 58.831705 1.889867 33.149558 0.370989 0.000000 0.000000 0.000000 
-1.172222 111.604042 -0.381882 0.000000 0.000000 0.000000 -0.280074 -11.147650 2.668325 -8.942639 8.118621 4.042248 22.582443 5.920969 -1.674098 -13.272547 0.582389 -2.367600 -1.321523 0.264991 -0.784572 0.000000 0.000000 0.000000 1.378547 -12.851152 2.452560 -16.838561 -7.004404 -5.929956 28.839248 7.134828 1.852479 -1.340405 1.966263 -2.528665 -12.678793 -0.257147 -0.724617 0.000000 0.000000 0.000000 0.341619 -13.221422 2.241323 5.620455 -2.947689 -1.925545 0.366264 -0.600356 -0.028354 0.982760 0.424056 0.188162 0.000000 0.000000 0.000000 0.471762 -0.471436 -0.090229 1.041183 0.745875 0.388383 16.073011 4.898893 0.430063 0.000000 0.000000 0.000000 0.292199 -0.454902 0.032865 0.412733 5.396540 -9.791851 -1.438713 -1.125021 -0.121991 18.426276 -19.368338 -51.197725 0.528116 -37.084710 0.700244 0.000000 0.000000 0.000000 0.241027 -0.754734 -0.033231 1.221509 -3.361663 15.612617 0.106825 2.249793 -2.699178 8.160731 18.132580 58.887364 1.861780 35.477611 0.315945 0.000000 0.000000 0.000000 
